<?xml version="1.0" encoding="utf-8"?>
<svg xmlns="http://www.w3.org/2000/svg" height="512pt" version="1.1" viewBox="0 0 512 512" width="512pt">
<path d="M 199.65 147.67 C 201.44 146.77 203.56 145.12 205.57 146.38 C 218.77 153.47 231.97 160.62 245.01 168.01 C 250.00 171.15 255.84 172.94 260.11 177.18 C 256.43 179.34 252.07 179.46 247.99 180.22 C 243.08 180.96 238.48 182.97 234.08 185.17 C 230.44 187.06 226.49 188.55 223.49 191.45 C 219.34 195.31 214.13 198.00 210.68 202.60 C 207.64 206.59 204.26 210.33 201.57 214.57 C 197.45 220.88 194.89 228.00 192.02 234.92 C 190.29 239.07 190.27 243.65 189.18 247.96 C 188.04 252.40 188.71 257.02 187.93 261.51 C 186.27 260.39 184.59 259.27 183.24 257.78 C 177.79 251.48 172.84 244.79 167.99 238.02 C 160.54 228.31 152.63 218.97 144.77 209.59 L 145.04 208.91 C 146.79 205.88 148.07 202.63 149.36 199.39 C 150.74 195.74 153.54 192.93 155.40 189.54 C 157.91 184.86 161.58 180.97 164.75 176.74 C 170.52 169.17 178.22 163.48 185.52 157.51 C 189.97 153.87 194.80 150.73 199.65 147.67 Z" fill="#f9a806" opacity="1.00" stroke="#f9a806" stroke-width="0.25"/>
<path d="M 311.82 147.02 C 320.13 153.15 328.95 158.71 336.50 165.80 C 336.39 176.20 336.60 186.60 336.47 197.00 C 336.32 203.20 337.10 209.80 334.18 215.54 C 332.00 208.71 329.39 202.02 326.84 195.32 C 321.78 182.92 317.14 170.33 313.54 157.41 C 312.62 154.02 311.97 150.54 311.82 147.02 Z" fill="#183c80" opacity="1.00" stroke="#183c80" stroke-width="0.25"/>
<path d="M 336.50 165.80 C 343.07 170.77 348.12 177.37 353.40 183.62 C 358.37 190.46 363.11 197.52 366.89 205.11 C 379.76 239.49 376.50 280.19 356.13 311.04 C 350.68 319.40 344.38 327.27 336.94 333.94 C 312.26 356.13 277.58 366.21 244.79 361.99 C 246.89 361.65 248.99 361.24 251.10 360.87 C 249.98 353.62 244.65 348.22 240.58 342.47 C 235.24 334.76 230.14 326.88 225.23 318.89 C 223.98 317.04 223.35 314.86 223.76 312.64 C 232.25 316.94 241.48 319.97 251.01 320.65 C 256.60 321.07 262.20 320.73 267.79 321.03 C 275.47 322.03 283.25 322.41 291.00 322.32 C 302.56 321.80 313.87 319.13 325.33 317.66 C 332.71 316.71 340.06 315.57 347.35 314.10 C 347.96 309.30 346.35 304.67 345.09 300.12 C 343.36 294.24 341.19 288.50 339.60 282.57 C 338.05 277.38 337.13 271.86 334.02 267.30 C 335.64 261.60 337.33 255.86 337.86 249.93 C 339.29 238.35 337.05 226.72 334.18 215.54 C 337.10 209.80 336.32 203.20 336.47 197.00 C 336.60 186.60 336.39 176.20 336.50 165.80 Z" fill="#ec3546" opacity="1.00" stroke="#ec3546" stroke-width="0.25"/>
<path d="M 285.97 177.27 C 291.16 178.23 295.62 181.23 299.96 184.07 C 306.97 189.42 313.54 196.08 316.19 204.71 C 318.15 209.59 317.53 214.91 317.60 220.03 C 317.69 223.38 318.63 226.65 318.74 230.00 C 316.96 227.26 316.40 223.98 315.23 220.98 C 310.95 209.20 304.96 197.88 296.56 188.51 C 293.43 184.39 289.40 181.10 285.97 177.27 Z" fill="#f9a806" opacity="1.00" stroke="#f9a806" stroke-width="0.25"/>
<path d="M 133.93 207.87 C 137.68 198.85 141.21 189.53 147.12 181.67 C 148.93 185.84 148.03 190.60 148.40 195.03 C 148.85 199.97 145.50 204.09 145.04 208.91 L 144.77 209.59 C 138.00 225.71 137.02 243.80 139.77 260.93 C 142.03 274.56 146.35 287.88 152.96 300.04 C 163.30 318.58 178.71 334.01 196.47 345.52 C 211.18 354.25 227.49 361.17 244.79 361.99 C 277.58 366.21 312.26 356.13 336.94 333.94 C 344.38 327.27 350.68 319.40 356.13 311.04 C 376.50 280.19 379.76 239.49 366.89 205.11 C 367.11 197.31 365.36 189.66 365.26 181.90 C 366.29 182.39 367.40 182.88 368.04 183.90 C 372.30 189.31 375.24 195.57 378.24 201.72 C 385.70 219.10 389.80 238.03 389.16 256.98 C 388.49 272.37 385.61 287.73 379.99 302.10 C 374.77 317.38 365.39 330.82 354.97 343.00 C 321.83 381.02 264.99 394.82 217.57 378.66 C 210.69 377.21 204.71 373.43 198.28 370.76 C 190.08 367.00 183.14 361.21 175.61 356.35 C 167.78 348.88 159.18 342.00 153.12 332.90 C 149.97 329.27 147.12 325.40 144.86 321.15 C 137.09 310.43 133.43 297.51 129.04 285.19 C 127.31 279.60 127.18 273.70 125.98 268.01 C 124.91 263.41 125.45 258.67 125.36 254.01 C 125.42 249.75 125.11 245.48 125.55 241.24 C 127.56 229.94 129.49 218.52 133.93 207.87 Z" fill="#fcfbfa" opacity="1.00" stroke="#fcfbfa" stroke-width="0.25"/>
<path d="M 326.10 194.87 L 326.84 195.32 C 329.39 202.02 332.00 208.71 334.18 215.54 C 337.05 226.72 339.29 238.35 337.86 249.93 C 337.33 255.86 335.64 261.60 334.02 267.30 C 327.10 285.43 314.51 301.93 297.31 311.33 C 288.23 316.44 278.12 319.73 267.79 321.03 C 262.20 320.73 256.60 321.07 251.01 320.65 C 241.48 319.97 232.25 316.94 223.76 312.64 C 211.54 305.57 200.50 295.55 194.51 282.57 C 192.58 278.26 191.12 273.75 189.92 269.18 C 189.51 263.58 189.69 257.90 190.44 252.33 C 191.06 248.60 192.84 244.66 196.48 243.04 C 198.18 248.87 197.03 255.12 199.02 260.90 C 202.65 274.91 210.58 288.08 222.56 296.47 C 237.72 307.73 258.02 310.78 276.16 306.15 C 288.93 303.27 300.14 295.40 308.71 285.69 C 320.00 271.99 326.80 254.72 328.09 237.03 C 328.71 222.96 328.28 208.79 326.10 194.87 Z" fill="#fcfbfa" opacity="1.00" stroke="#fcfbfa" stroke-width="0.25"/>
<path d="M 139.77 260.93 C 137.02 243.80 138.00 225.71 144.77 209.59 C 152.63 218.97 160.54 228.31 167.99 238.02 C 172.84 244.79 177.79 251.48 183.24 257.78 C 184.59 259.27 186.27 260.39 187.93 261.51 C 188.65 264.05 189.27 266.62 189.92 269.18 C 191.12 273.75 192.58 278.26 194.51 282.57 C 200.50 295.55 211.54 305.57 223.76 312.64 C 223.35 314.86 223.98 317.04 225.23 318.89 C 230.14 326.88 235.24 334.76 240.58 342.47 C 244.65 348.22 249.98 353.62 251.10 360.87 C 248.99 361.24 246.89 361.65 244.79 361.99 C 227.49 361.17 211.18 354.25 196.47 345.52 C 178.71 334.01 163.30 318.58 152.96 300.04 C 146.35 287.88 142.03 274.56 139.77 260.93 Z" fill="#ef6822" opacity="1.00" stroke="#ef6822" stroke-width="0.25"/>
<path d="M 297.31 311.33 C 314.51 301.93 327.10 285.43 334.02 267.30 C 337.13 271.86 338.05 277.38 339.60 282.57 C 341.19 288.50 343.36 294.24 345.09 300.12 C 346.35 304.67 347.96 309.30 347.35 314.10 C 340.06 315.57 332.71 316.71 325.33 317.66 C 313.87 319.13 302.56 321.80 291.00 322.32 C 283.25 322.41 275.47 322.03 267.79 321.03 C 278.12 319.73 288.23 316.44 297.31 311.33 Z" fill="#183c80" opacity="1.00" stroke="#183c80" stroke-width="0.25"/>
</svg>
